<svg xmlns="http://www.w3.org/2000/svg" width="360" height="140.6" viewBox="0 0 360 140.6"><g fill="#231815"><path d="M310.1 39.6l-13-25.2c-1-1.9-3.4-2.7-5.3-1.6-1.9 1-2.7 3.4-1.7 5.3l13 25.3s1.5 3 1.6 4.8c.1 1.8-.9 4-2.1 5.3-1.5 1.6-1.4 4.1.3 5.6 1.6 1.4 4.1 1.3 5.6-.3 2.6-2.9 4.3-6.3 4.1-10.1-.2-4-1.5-7.1-2.5-9.1zM280.5 14c-2.1-.6-4.3.7-4.8 2.8l-7.5 27.4s-.9 3.2-2.1 4.6c-1.1 1.4-3.4 2.3-5.1 2.5-2.2.2-3.8 2.1-3.6 4.3.2 2.2 2.1 3.8 4.3 3.6 3.9-.3 7.4-1.7 9.9-4.7s3.6-6.1 4.2-8.3l7.5-27.4c.6-2.1-.7-4.3-2.8-4.8zM255.3 15.8c-1.9-1.1-4.3-.5-5.4 1.3l-13.4 22.4c-.9 1.5-2.4 2.6-4.1 3-1.7.4-3.5.2-5.1-.8-1.9-1.1-4.3-.5-5.4 1.4-1.1 1.9-.5 4.3 1.3 5.4 3.3 2 7.2 2.6 11 1.6 3.8-.9 6.9-3.3 8.9-6.6l13.4-22.4c1.3-1.7.7-4.2-1.2-5.3zM151.2 49c-1.8 0-3.3-1.2-3.8-3-.6-2.1.7-4.3 2.8-4.8.7-.2 1.1-.8 1.8-2.7.6-1.9 2.9-8.6 2.9-8.6.7-2.1 2.9-3.2 5-2.5 2.1.7 3.2 2.9 2.5 5l-3.2 9.3c-1 3.1-3.4 6.4-6.8 7.1-.4.2-.9.2-1.2.2zM198.6 49c1.8 0 3.4-1.2 3.8-3 .5-2.1-.7-4.3-2.8-4.8-.7-.2-1.1-.8-1.8-2.7-.6-1.9-2.9-8.6-2.9-8.6-.7-2.1-3-3.2-5-2.5-2.1.7-3.2 2.9-2.5 5l3.2 9.3c1.1 3.1 3.5 6.4 6.8 7.1.5.2.9.2 1.2.2zM229.5 17.1l-5.6-3.7c-1.8-1.2-4.3-.7-5.5 1-1.2 1.8-.8 4.3 1 5.5l5.6 3.7c1.8 1.2 4.3.8 5.5-1 1.2-1.8.8-4.3-1-5.5z"/><path d="M191.2 12.7h-12.4V7.2c0-2.2-1.8-4-3.9-4-2.2 0-3.9 1.8-3.9 4v5.5h-12.4c-2.2 0-4 1.8-4 4s1.8 3.9 4 3.9H171v24.2c0 1.8-.7 3.5-1.9 4.7-1.3 1.2-2.9 2-4.7 2-2.2 0-3.9 1.8-3.9 3.9 0 2.2 1.8 3.9 3.9 3.9 3.9 0 7.6-1.5 10.3-4.3 2.8-2.7 4.3-6.4 4.3-10.3V20.5h12.4c2.2 0 4-1.8 4-3.9-.2-2.1-2-3.9-4.2-3.9zM202.8 15.9c-4.4 0-7.9-3.5-7.9-7.9s3.5-7.9 7.9-7.9 7.9 3.5 7.9 7.9c.1 4.4-3.5 7.9-7.9 7.9zm0-10.9c-1.6 0-3 1.3-3 3 0 1.6 1.3 3 3 3 1.6 0 3-1.3 3-3 0-1.6-1.3-3-3-3zM306.1 15.9c-4.4 0-7.9-3.6-7.9-7.9 0-4.4 3.5-7.9 7.9-7.9S314 3.6 314 8s-3.6 7.9-7.9 7.9zm0-10.8c-1.6 0-3 1.3-3 3 0 1.6 1.3 3 3 3 1.6 0 3-1.3 3-3s-1.4-3-3-3zM356.7 30.1c-1-.2-2 .1-2.6.6-.5.4-2.5 2.9-2.9 3.4-5 5.9-10.4 8.4-15.8 9.2V16.8c0-2.2-1.8-4-4-4s-3.9 1.8-3.9 4v30.5c0 2.2 1.8 4 3.9 4 5.8 0 12.5-.7 21.1-7.8.9-.7 6.8-5.7 7.4-9 .5-2.7-1.9-4.2-3.2-4.4z"/></g><path fill="#E6002D" d="M75.9 0C40.2 0 11.2 28.9 11.2 64.6c0 35.7 28.9 64.6 64.6 64.6 35.7 0 64.6-28.9 64.6-64.6C140.5 28.9 111.6 0 75.9 0zm0 118.1c-29.5 0-53.5-23.9-53.5-53.5 0-29.5 24-53.5 53.5-53.5s53.5 23.9 53.5 53.5-24 53.5-53.5 53.5z"/><path fill="#EC7AA6" d="M41.1 59.8V47.7c0-11.2 8.2-19.3 19.4-19.3h9.4v13.4h-9.4c-2.2 0-5.9.8-5.9 5.9v12.1H41.1z"/><path fill="#00AFCC" d="M54.5 96.9H41.1V59.8h13.4v37.1"/><path fill="#E6002D" d="M8.4 85.1c-5.4 0-8.4-3-8.4-6.7s3-6.7 8.4-6.7H86c9.4 0 15.2-7.5 15.2-14.9S95.7 41.9 85 41.9H69.9c-3.7 0-6.7-3-6.7-6.7s3-6.7 6.7-6.7h15.2c16.9 0 29.6 12.2 29.6 28.4s-13 28.4-30.3 28.4h-76z"/><path fill="#F08300" d="M29.7 140.6h-2.2c-3.7 0-6.7-3-6.7-6.7s3-6.7 6.7-6.7h2.2c3 0 5.9-1.2 8-3.3 2.1-2.1 3.3-5 3.3-8v-19h13.4v18.8c0 6.6-2.6 12.8-7.3 17.5-4.6 4.8-10.8 7.4-17.4 7.4z"/><g><path fill="#E6002D" d="M346.7 81.8c0-8-6.5-14.5-14.5-14.5H169c-8 0-14.5 6.5-14.5 14.5v34.7c0 8 6.5 14.5 14.5 14.5h163.3c8 0 14.5-6.5 14.5-14.5V81.8z"/><g fill="#FFF"><path d="M290.4 80.9c-2.1-.4-4.1 1-4.5 3.1l-4.4 22.3c-.2.7-.8 3.2-1.6 4.4-1 1.4-3.1 2.5-4.8 2.8-2.1.3-3.5 2.3-3.2 4.4.3 2.1 2.3 3.5 4.4 3.2 3.7-.6 7.1-2.1 9.3-5.2 1.9-2.7 2.9-5.4 3.3-7.5.1-.3.1-.6.2-.8l4.4-22.1c.4-2.1-1-4.2-3.1-4.6zM265.3 94.6H238c-2.1 0-3.9 1.7-3.9 3.8 0 2.1 1.7 3.8 3.9 3.8h27.3c2.1 0 3.9-1.7 3.9-3.8 0-2.1-1.8-3.8-3.9-3.8zM322.8 95.7c-1 .1-1.8.5-2.3 1.2-.4.5-1.6 3.4-1.9 4-1.8 3.5-6.6 7-11.9 7.7v-28c0-2.1-1.7-3.8-3.9-3.8-2.1 0-3.8 1.7-3.8 3.8v31.9c0 2.1 1.7 3.8 3.8 3.8 5.6 0 13.7-1.8 18.7-7.2 2.3-2.5 5.6-6.8 5.4-10.1-.1-2.5-2.8-3.3-4.1-3.3zM223.2 92.7c-1.8-1.2-4.1-.7-5.3 1.1-.4.5-.9.7-2.3.8h-17.7v-9h15.3c2.1 0 3.9-1.7 3.9-3.8 0-2.1-1.7-3.8-3.9-3.8h-30.7c-2.1 0-3.9 1.7-3.9 3.8 0 2.1 1.7 3.8 3.9 3.8h7.7v9h-10.9c-2.1 0-3.9 1.7-3.9 3.8 0 2.1 1.7 3.8 3.9 3.8h10.9v4.9c0 3.8 1.5 7.4 4.2 10 2.3 2.4 5.4 3.8 8.6 4.1 2.1.3 6.3.4 9.2-.6 3.6-1.1 6.2-3.7 8-7 1-1.9.3-4.2-1.5-5.2-1.9-1-4.2-.3-5.2 1.5s-2.7 3-4.7 3.6c-1.4.4-3.6.2-4.4.1-2-.1-3.4-.7-4.6-2-1.2-1.2-1.9-2.8-1.9-4.6v-4.9h17.8c3.2 0 7-1.1 8.7-4 .2-.3.3-.7.4-1 .5-1.5-.1-3.4-1.6-4.4z"/></g></g></svg>